<!-- Generated by IcoMoon.io -->
<svg version="1.1" xmlns="http://www.w3.org/2000/svg" width="32" height="32" viewBox="0 0 32 32">
<title>airbnb</title>
<path fill="#ff5a5f" d="M15.997 24.356c-1.803-2.261-2.863-4.243-3.216-5.94-0.351-1.368-0.212-2.463 0.388-3.285 0.636-0.947 1.583-1.407 2.827-1.407s2.189 0.46 2.825 1.416c0.595 0.813 0.744 1.909 0.381 3.285-0.388 1.731-1.447 3.712-3.205 5.931zM28.793 25.876c-0.247 1.66-1.379 3.037-2.933 3.709-3.001 1.307-5.973-0.777-8.517-3.604 4.207-5.267 4.984-9.367 3.179-12.019-1.060-1.52-2.577-2.26-4.524-2.26-3.924 0-6.081 3.32-5.233 7.173 0.493 2.085 1.801 4.456 3.887 7.107-1.307 1.445-2.545 2.473-3.64 3.109-0.848 0.459-1.66 0.743-2.437 0.811-3.569 0.532-6.368-2.931-5.097-6.503 0.176-0.46 0.527-1.307 1.127-2.615l0.033-0.071c1.951-4.235 4.32-9.048 7.043-14.387l0.071-0.176 0.773-1.487c0.6-1.096 0.847-1.587 1.801-2.191 0.46-0.279 1.025-0.419 1.66-0.419 1.272 0 2.263 0.743 2.687 1.341 0.211 0.319 0.46 0.743 0.776 1.271l0.744 1.451 0.107 0.212c2.72 5.336 5.092 10.14 7.035 14.385l0.035 0.033 0.711 1.627 0.424 1.019c0.324 0.816 0.392 1.628 0.292 2.481zM30.419 22.691c-0.248-0.777-0.672-1.695-1.2-2.791v-0.040c-2.516-5.34-4.853-10.14-7.072-14.453l-0.148-0.216c-1.581-3.243-2.713-5.191-6.001-5.191-3.251 0-4.632 2.259-6.044 5.196l-0.108 0.213c-2.224 4.312-4.56 9.119-7.068 14.456v0.071l-0.744 1.625c-0.28 0.672-0.423 1.024-0.46 1.129-1.8 4.949 1.909 9.296 6.4 9.296 0.036 0 0.176 0 0.352-0.036h0.496c2.333-0.284 4.737-1.767 7.176-4.421 2.437 2.651 4.844 4.137 7.173 4.421h0.496c0.176 0.036 0.317 0.036 0.352 0.036 4.491 0.004 8.2-4.347 6.4-9.296z"></path>
</svg>
