<!-- Generated by IcoMoon.io -->
<svg version="1.1" xmlns="http://www.w3.org/2000/svg" width="24" height="24" viewBox="0 0 24 24">
<title>coronavirus</title>
<path d="M21.234 10.5q-0.281 0-0.516 0.211t-0.234 0.539h-1.547q-0.188-2.063-1.5-3.656l1.078-1.078h0.047q0.188 0.234 0.492 0.234t0.539-0.234 0.234-0.539-0.234-0.539l-1.031-1.031q-0.234-0.234-0.539-0.234t-0.539 0.234-0.234 0.539 0.234 0.492l-1.125 1.125q-0.75-0.656-1.664-1.031t-1.945-0.516v-1.5q0.328 0 0.539-0.234t0.211-0.516q0-0.328-0.211-0.539t-0.539-0.211h-1.5q-0.328 0-0.539 0.211t-0.211 0.539q0 0.281 0.211 0.516t0.539 0.234v1.547q-1.031 0.094-1.969 0.492t-1.688 1.008l-1.078-1.078v-0.047q0.234-0.188 0.234-0.492t-0.234-0.539-0.539-0.234-0.539 0.234l-1.031 1.031q-0.234 0.234-0.234 0.539t0.234 0.539 0.539 0.234 0.492-0.234l1.125 1.125q-0.656 0.75-1.031 1.664t-0.469 1.945h-1.547q0-0.328-0.234-0.539t-0.516-0.211q-0.328 0-0.539 0.211t-0.211 0.539v1.5q0 0.328 0.211 0.539t0.539 0.211q0.281 0 0.516-0.211t0.234-0.539h1.547q0.094 1.031 0.492 1.945t1.008 1.664l-1.125 1.125q-0.188-0.234-0.492-0.234t-0.539 0.234-0.234 0.539 0.234 0.539l1.031 1.031q0.234 0.234 0.539 0.234t0.539-0.234 0.234-0.539-0.234-0.492v-0.047l1.078-1.078q0.75 0.609 1.688 1.008t1.969 0.492v1.547q-0.328 0-0.539 0.234t-0.211 0.516q0 0.328 0.211 0.539t0.539 0.211h1.5q0.281 0 0.516-0.211t0.234-0.539q0-0.281-0.234-0.516t-0.516-0.234v0-1.547q0.984-0.094 1.922-0.492t1.688-1.008l1.078 1.125q-0.188 0.188-0.188 0.492t0.234 0.539q0.188 0.234 0.516 0.234t0.516-0.234l1.078-1.078q0.234-0.188 0.234-0.516t-0.234-0.516q-0.234-0.234-0.539-0.234t-0.539 0.234v0l-1.078-1.078q0.609-0.797 1.008-1.711t0.492-1.945h1.547q0 0.281 0.234 0.516t0.516 0.234q0.328 0 0.539-0.234t0.211-0.516v-1.5q0-0.328-0.211-0.539t-0.539-0.211zM13.734 8.016q0.422 0 0.727 0.281t0.305 0.703-0.305 0.703-0.727 0.281q-0.375 0-0.68-0.281t-0.305-0.703 0.305-0.703 0.68-0.281zM12 12.984q-0.422 0-0.703-0.281t-0.281-0.703 0.281-0.703 0.703-0.281 0.703 0.281 0.281 0.703-0.281 0.703-0.703 0.281zM10.266 8.016q0.375 0 0.68 0.281t0.305 0.703-0.305 0.703-0.68 0.281q-0.422 0-0.727-0.281t-0.305-0.703 0.305-0.703 0.727-0.281zM8.484 12.984q-0.375 0-0.68-0.281t-0.305-0.703 0.305-0.703 0.68-0.281q0.422 0 0.727 0.281t0.305 0.703-0.305 0.703-0.727 0.281zM10.266 15.984q-0.422 0-0.727-0.281t-0.305-0.703 0.305-0.703 0.727-0.281q0.375 0 0.68 0.281t0.305 0.703-0.305 0.703-0.68 0.281zM13.734 15.984q-0.375 0-0.68-0.281t-0.305-0.703 0.305-0.703 0.68-0.281q0.422 0 0.727 0.281t0.305 0.703-0.305 0.703-0.727 0.281zM14.484 12q0-0.422 0.305-0.703t0.727-0.281q0.375 0 0.68 0.281t0.305 0.703-0.305 0.703-0.68 0.281q-0.422 0-0.727-0.281t-0.305-0.703z"></path>
</svg>
