<!-- Generated by IcoMoon.io -->
<svg version="1.1" xmlns="http://www.w3.org/2000/svg" width="32" height="32" viewBox="0 0 32 32">
<title>gnome</title>
<path fill="#4a86cf" d="M23.82 0c-5.067 0-6.017 7.219-3.167 7.219s8.235-7.219 3.167-7.219zM15.989 0.885c-0.080 0-0.165 0.004-0.255 0.016-2.853 0.369-1.847 5.329-0.328 5.421 1.471 0.091 3.077-5.428 0.583-5.437zM11.049 2.845c-0.151 0.004-0.316 0.041-0.495 0.116-2.293 0.947-0.349 4.848 0.935 4.587 1.185-0.243 1.339-4.741-0.44-4.703zM7.396 5.907c-0.243 0.001-0.467 0.083-0.647 0.221l0.003-0.002c-1.835 1.267 0.616 4.332 1.696 3.856 0.944-0.416 0.343-4.028-1.052-4.075zM17.579 8.251c-3.893 0.033-8.848 2.008-9.712 5.872-0.957 4.289 3.947 10.24 9.063 10.24 2.517 0 5.421-2.275 5.964-5.155 0.415-2.196-4.883-1.315-4.693 0.139 0.228 1.741-1.277 2.6-2.752 1.476-4.693-3.573 7.773-5.355 6.951-10.237-0.267-1.583-2.325-2.357-4.82-2.335zM7.024 26.92c-0.715 0-1.277 0.227-1.688 0.68s-0.617 1.073-0.617 1.863c0 0.78 0.204 1.397 0.607 1.853 0.404 0.455 0.951 0.683 1.64 0.683 0.344 0 1.164 0.005 1.717-0.459v-2.353h-1.664v0.845h0.859v0.847c-0.131 0.107-0.376 0.205-0.773 0.205-0.391 0-0.725-0.141-0.947-0.424-0.223-0.281-0.333-0.68-0.333-1.197 0-0.523 0.116-0.924 0.345-1.204 0.231-0.281 0.559-0.424 0.984-0.424 0.402 0 0.778 0.112 1.099 0.305l-0.010-0.005 0.288-0.849c-0.206-0.113-0.444-0.207-0.695-0.269l-0.021-0.004c-0.234-0.058-0.503-0.092-0.779-0.092-0.004 0-0.008 0-0.012 0h0.001zM15.773 26.92c-0.627 0.017-1.123 0.243-1.487 0.675-0.377 0.451-0.568 1.075-0.568 1.867s0.191 1.413 0.568 1.863c0.379 0.451 0.9 0.675 1.565 0.675 0.667 0 1.187-0.224 1.565-0.675 0.377-0.451 0.564-1.071 0.564-1.861 0-0.793-0.187-1.417-0.565-1.867-0.377-0.451-0.899-0.676-1.564-0.676zM9.413 27.009v4.893h0.909v-2.94l2.131 2.94h0.675v-4.893h-0.909v2.943l-2.131-2.943zM18.891 27.009l-0.519 4.893h1.013l0.312-3.164 0.953 3.179h0.677l0.956-3.075 0.312 3.060h1.011l-0.52-4.893h-1.149l-0.951 3.053-0.943-3.053zM24.336 27.009v4.893h2.945v-0.953h-1.877v-1.12h1.396v-0.852h-1.396v-1.015h1.815v-0.953zM15.82 27.835h0.032c0.327 0 0.58 0.143 0.76 0.427s0.268 0.685 0.268 1.2-0.088 0.912-0.268 1.196c-0.15 0.257-0.424 0.427-0.738 0.427-0.008 0-0.015-0-0.023-0l0.001 0c-0.007 0-0.014 0-0.022 0-0.314 0-0.588-0.17-0.735-0.423l-0.002-0.004c-0.179-0.284-0.271-0.681-0.271-1.195 0-0.516 0.092-0.917 0.271-1.2 0.147-0.255 0.417-0.424 0.726-0.428h0.001z"></path>
</svg>
