<!-- Generated by IcoMoon.io -->
<svg version="1.1" xmlns="http://www.w3.org/2000/svg" width="32" height="32" viewBox="0 0 32 32">
<title>intel</title>
<path fill="#0071c5" d="M9.427 14.4v5.169h-1.644v-6.497l3.396 0.003c1.44 0 1.932 1.019 1.932 1.941v4.553h-1.64v-4.544c0-0.388-0.199-0.625-0.684-0.625zM20.612 14.323c-0.563 0-0.997 0.288-1.18 0.68-0.103 0.223-0.156 0.463-0.157 0.707h2.531c-0.031-0.707-0.351-1.387-1.193-1.387zM19.275 16.829c0 0.839 0.524 1.46 1.459 1.46 0.725 0 1.087-0.2 1.508-0.621l1.016 0.972c-0.649 0.641-1.335 1.031-2.536 1.031-1.573 0-3.080-0.857-3.080-3.36 0-2.14 1.313-3.349 3.041-3.349 1.753 0 2.767 1.417 2.767 3.273v0.591h-4.175zM16.251 19.559c-1.339 0-1.909-0.932-1.909-1.855v-6.4h1.643v1.769h1.237v1.328h-1.239v3.2c0 0.379 0.18 0.587 0.572 0.587h0.667v1.369zM6.319 12.175h-1.656v-1.573h1.656zM6.323 19.635c-1.24-0.117-1.661-0.868-1.661-1.74v-4.82h1.659v6.565zM26.063 19.496c-1.239-0.12-1.657-0.869-1.657-1.737v-7.38h1.657v9.12zM31.859 11.445c-1.5-7.324-15.723-7.788-24.885-2.209v0.616c9.153-4.704 22.139-4.677 23.321 2.067 0.395 2.233-0.861 4.557-3.105 5.896v1.748c2.7-0.989 5.473-4.196 4.669-8.117zM15.197 24.259c-6.323 0.584-12.915-0.335-13.836-5.276-0.449-2.436 0.663-5.020 2.131-6.623v-0.857c-2.649 2.324-4.087 5.267-3.259 8.743 1.056 4.46 6.713 6.985 15.345 6.145 3.417-0.332 7.888-1.432 10.996-3.139v-2.421c-2.821 1.681-7.489 3.069-11.377 3.428zM27.979 10.867c0-0.080-0.049-0.105-0.155-0.105h-0.103v0.227l0.103 0.003c0.105 0 0.155-0.033 0.155-0.112zM28.139 11.431h-0.121c-0.012 0-0.024-0.005-0.028-0.016l-0.167-0.284c-0.004-0.007-0.017-0.013-0.025-0.013h-0.075v0.283c0 0.016-0.012 0.033-0.031 0.033h-0.109c-0.015 0-0.028-0.019-0.028-0.033v-0.711c0-0.039 0.016-0.060 0.051-0.064 0.067-0.007 0.135-0.008 0.203-0.008 0.203 0 0.328 0.061 0.328 0.251v0.013c0 0.12-0.061 0.18-0.152 0.211l0.173 0.292c0 0.008 0.007 0.016 0.007 0.024 0.003 0.009-0.005 0.023-0.025 0.023v0.003zM27.848 10.485c-0.301 0-0.544 0.245-0.544 0.547 0.001 0.303 0.248 0.545 0.548 0.544 0.3 0 0.541-0.243 0.545-0.541-0.003-0.301-0.247-0.548-0.549-0.549zM27.848 11.695c-0.364 0-0.66-0.296-0.66-0.66s0.296-0.66 0.659-0.66h0.001c0.361 0 0.66 0.299 0.66 0.66 0 0.365-0.299 0.66-0.66 0.66z"></path>
</svg>
