<!-- Generated by IcoMoon.io -->
<svg version="1.1" xmlns="http://www.w3.org/2000/svg" width="32" height="32" viewBox="0 0 32 32">
<title>intellijidea</title>
<path d="M0 0v32h32v-32zM4.964 4.148h6.667v2.445h-1.853v8.369h1.853v2.445h-6.667v-2.445h1.925v-8.369h-1.925zM19.704 4.148h2.963v8.667c0 0.816-0.073 1.481-0.296 2.075-0.223 0.592-0.52 1.036-0.964 1.48-0.369 0.372-0.888 0.743-1.48 0.891-0.571 0.233-1.233 0.369-1.926 0.371h-0.001c-1.037 0-1.925-0.223-2.592-0.593-0.662-0.381-1.226-0.85-1.698-1.399l-0.007-0.009 1.853-2.073c0.369 0.445 0.74 0.74 1.111 0.963 0.369 0.223 0.815 0.371 1.26 0.371 0.519 0 0.961-0.148 1.333-0.519 0.295-0.371 0.444-0.889 0.444-1.704zM2.963 26h12v2h-12z"></path>
</svg>
