<!-- Generated by IcoMoon.io -->
<svg version="1.1" xmlns="http://www.w3.org/2000/svg" width="24" height="24" viewBox="0 0 24 24">
<title>mic_external_on</title>
<path d="M9.234 6.984h-4.453q-0.375-0.375-0.586-0.891t-0.211-1.078q0-0.844 0.422-1.523t1.102-1.078 1.477-0.398q0.844 0 1.523 0.398t1.078 1.078 0.398 1.523q0 0.563-0.211 1.078t-0.539 0.891zM15.984 2.016q1.125 0 2.039 0.539t1.453 1.43 0.539 2.016v15.984h-2.016v-15.984q0-0.844-0.586-1.43t-1.43-0.586q-0.797 0-1.383 0.586t-0.586 1.43v12q0 1.125-0.539 2.016t-1.453 1.43-2.039 0.539q-1.078 0-1.992-0.539t-1.453-1.43-0.539-2.016h-0.984l-1.031-9.984h6l-0.984 9.984h-0.984q0 0.844 0.586 1.43t1.383 0.586q0.844 0 1.43-0.586t0.586-1.43v-12q0-1.125 0.539-2.016t1.453-1.43 1.992-0.539z"></path>
</svg>
