<!-- Generated by IcoMoon.io -->
<svg version="1.1" xmlns="http://www.w3.org/2000/svg" width="32" height="32" viewBox="0 0 32 32">
<title>microphone</title>
<path d="M18.251 12.906c0.617-2.099 0.356-4.4-0.782-6.327 0.025 0.035-10.879 11.027-10.957 10.958 1.895 1.119 4.196 1.434 6.267 0.856-0.015-0.053 5.428-5.495 5.472-5.487zM16.306 4.826c-1.469-1.448-3.571-2.43-5.794-2.43-4.493 0-8.136 3.652-8.136 8.156 0 2.198 1 4.326 2.41 5.793 0.003 0 11.451-11.425 11.52-11.519zM27.812 26.466c0 0 0.266-2.298-0.397-2.961-0.044-0.044-7.646-9.325-7.646-9.325l-5.657 5.657 9.281 7.689c0.619 0.707 3.005 0.354 3.005 0.354l1.9 1.724 1.326-1.326-1.812-1.812z"></path>
</svg>
