<!-- Generated by IcoMoon.io -->
<svg version="1.1" xmlns="http://www.w3.org/2000/svg" width="32" height="32" viewBox="0 0 32 32">
<title>mozilla</title>
<path d="M0 32v-32h32v32zM21.853 9.013l-0.307 0.040-0.293 0.053-0.28 0.080-0.533 0.187-0.253 0.12-0.24 0.133-0.227 0.147-0.227 0.16-0.213 0.173-0.2 0.187-0.187 0.2-0.173 0.213-0.173 0.227-0.147 0.227-0.147 0.253-0.133 0.253-0.12 0.28-0.107-0.293-0.133-0.28-0.133-0.267-0.16-0.253-0.173-0.227-0.187-0.213-0.2-0.2-0.2-0.187-0.227-0.173-0.227-0.147-0.253-0.147-0.24-0.12-0.267-0.107-0.267-0.093-0.267-0.080-0.28-0.067-0.293-0.053-0.587-0.053h-0.573l-0.28 0.027-0.267 0.027-0.267 0.040-0.253 0.067-0.24 0.067-0.24 0.080-0.24 0.093-0.213 0.107-0.227 0.107-0.4 0.267-0.187 0.147-0.187 0.16-0.173 0.173-0.16 0.173-0.16 0.187-0.147 0.2-0.133 0.213-0.12 0.213v-2.067h-5.8v2.96h1.827v7.813h-1.827v3.013h8.44v-3.013h-2.64v-5.080l0.013-0.28 0.040-0.267 0.040-0.253 0.053-0.24 0.067-0.24 0.080-0.213 0.093-0.213 0.107-0.187 0.12-0.187 0.147-0.16 0.147-0.147 0.16-0.133 0.187-0.12 0.2-0.107 0.2-0.080 0.227-0.067 0.253-0.053 0.253-0.027 0.28-0.013h0.227l0.213 0.027 0.213 0.040 0.187 0.053 0.187 0.067 0.173 0.080 0.16 0.093 0.147 0.12 0.133 0.133 0.133 0.147 0.107 0.16 0.107 0.187 0.16 0.427 0.067 0.253 0.053 0.253 0.040 0.28 0.040 0.307 0.013 0.333v8.12h5.733v-3.013h-1.827v-4.8l0.027-0.56 0.027-0.267 0.053-0.253 0.053-0.24 0.067-0.24 0.080-0.213 0.093-0.213 0.107-0.187 0.12-0.187 0.133-0.16 0.16-0.147 0.16-0.133 0.187-0.12 0.187-0.107 0.213-0.080 0.227-0.067 0.253-0.053 0.253-0.027 0.28-0.013h0.227l0.213 0.027 0.213 0.040 0.187 0.053 0.187 0.067 0.173 0.080 0.16 0.093 0.147 0.12 0.133 0.133 0.12 0.147 0.12 0.16 0.107 0.187 0.16 0.427 0.067 0.253 0.053 0.253 0.040 0.28 0.040 0.307 0.013 0.333v8.12h5.733v-3.013h-1.827v-6.293l-0.013-0.48-0.053-0.44-0.080-0.427-0.107-0.4-0.133-0.373-0.16-0.347-0.187-0.32-0.213-0.307-0.24-0.267-0.24-0.253-0.28-0.213-0.28-0.2-0.307-0.173-0.32-0.16-0.333-0.12-0.333-0.107-0.36-0.080-0.347-0.053-0.373-0.040h-0.693z"></path>
</svg>
