<!-- Generated by IcoMoon.io -->
<svg version="1.1" xmlns="http://www.w3.org/2000/svg" width="32" height="32" viewBox="0 0 32 32">
<title>netflix</title>
<path fill="#e50914" d="M7.187 0.005l6.333 17.947v-0.009l0.501 1.413c2.784 7.877 4.28 12.1 4.288 12.109 0.005 0 0.427 0.027 0.936 0.053 1.541 0.067 3.453 0.24 4.901 0.413 0.333 0.040 0.621 0.053 0.64 0.040l-6.28-17.813-0.581-1.64-3.231-9.133c-0.613-1.733-1.133-3.211-1.16-3.267l-0.041-0.119zM18.531 0.016l-0.013 7.075-0.011 7.075-0.583-1.643v-0.003l-0.753 15.747c0.74 2.089 1.136 3.204 1.14 3.209 0.005 0.005 0.427 0.032 0.936 0.056 1.543 0.067 3.453 0.24 4.907 0.413 0.333 0.040 0.623 0.053 0.64 0.040s0.027-7.227 0.023-16.013l-0.011-15.959zM7.187 0.003v15.987c0 8.792 0.009 15.993 0.020 16.004s0.555-0.040 1.209-0.115c0.653-0.080 1.56-0.173 2.013-0.213 0.691-0.067 2.757-0.2 2.997-0.2 0.069 0 0.075-0.36 0.084-6.773l0.011-6.773 0.507 1.413 0.173 0.501 0.76-15.733-0.253-0.728-1.173-3.253-0.040-0.116z"></path>
</svg>
