<!-- Generated by IcoMoon.io -->
<svg version="1.1" xmlns="http://www.w3.org/2000/svg" width="32" height="32" viewBox="0 0 32 32">
<title>opensuse</title>
<path fill="#73ba25" d="M28.68 10.809c-0.016-0.001-0.034-0.001-0.053-0.001-0.345 0-0.659 0.134-0.892 0.354l0.001-0.001c-0.256 0.242-0.415 0.584-0.415 0.963 0 0.712 0.561 1.292 1.265 1.323l0.003 0c0.013 0.001 0.029 0.001 0.045 0.001 0.713 0 1.294-0.564 1.32-1.27l0-0.002c0-0.013 0.001-0.028 0.001-0.043 0-0.714-0.566-1.296-1.273-1.322l-0.002-0zM28.896 12.252c-0.323 0-0.584-0.175-0.584-0.389 0-0.217 0.261-0.391 0.584-0.391 0.324 0 0.587 0.173 0.587 0.391 0 0.213-0.263 0.389-0.587 0.389zM31.971 13.825c0.009-0.008 0.032-0.027 0.029-0.045-0.073-0.457-0.753-2.672-1.269-3.205-0.141-0.145-0.255-0.288-0.485-0.423-1.864-1.085-6.284-1.741-6.492-1.771 0 0-0.020-0.005-0.035 0.009-0.012 0.011-0.013 0.032-0.013 0.032l-0.020 1.019c-0.452-0.152-3.733-1.213-6.811-1.32-2.608-0.089-6.408-0.428-11.445 2.669l-0.148 0.093c-2.369 1.476-4.005 3.299-4.86 5.415-0.268 0.667-0.629 2.171-0.272 3.584 0.155 0.619 0.441 1.24 0.828 1.796 0.875 1.257 2.343 2.091 3.924 2.232 2.232 0.2 3.921-0.803 4.523-2.68 0.413-1.295 0-3.196-1.584-4.165-1.289-0.788-2.675-0.609-3.479-0.077-0.697 0.463-1.092 1.181-1.085 1.969 0.016 1.4 1.223 2.144 2.089 2.147 0.252 0 0.504-0.044 0.789-0.137 0.115-0.034 0.216-0.079 0.308-0.136l-0.005 0.003 0.033-0.020 0.020-0.013-0.007 0.004c0.191-0.13 0.315-0.346 0.315-0.592 0-0.068-0.009-0.134-0.027-0.196l0.001 0.005c-0.088-0.3-0.36-0.515-0.683-0.515-0.047 0-0.093 0.005-0.137 0.013l0.005-0.001-0.048 0.011-0.067 0.020-0.096 0.033c-0.2 0.049-0.349 0.053-0.381 0.055-0.101-0.007-0.6-0.156-0.6-0.703v-0.007c0-0.201 0.080-0.343 0.124-0.419 0.156-0.244 0.58-0.483 1.155-0.433 0.753 0.067 1.297 0.453 1.657 1.181 0.333 0.677 0.247 1.512-0.227 2.123-0.467 0.605-1.301 0.863-2.412 0.743-1.133-0.121-2.085-0.799-2.586-1.751l-0.009-0.018c-0.519-0.98-0.547-2.143-0.073-3.035 1.133-2.139 3.273-2.116 4.445-1.913 1.736 0.301 3.712 1.903 4.412 3.752 0.113 0.293 0.171 0.528 0.221 0.741l0.076 0.32 1.96 0.957c0.043 0.020 0.057 0.027 0.073 0.015 0.021-0.015 0.009-0.056 0.009-0.056-0.013-0.044-0.040-0.084-0.087-0.633-0.036-0.487-0.112-1.82 0.56-2.48 0.26-0.26 0.656-0.489 0.971-0.564 1.285-0.313 2.792-0.097 4.217 1.552 0.737 0.853 1.097 1.24 1.279 1.415 0 0 0.040 0.040 0.063 0.057 0.024 0.020 0.040 0.036 0.073 0.055 0.060 0.033 2.451 1.133 2.451 1.133s0.029 0.015 0.049-0.011c0.021-0.027 0.001-0.051 0.001-0.051-0.016-0.019-1.516-1.957-1.249-3.553 0.211-1.272 1.223-1.156 2.623-0.999 0.457 0.053 0.977 0.113 1.516 0.125 1.503 0.009 3.123-0.268 4.12-0.705 0.647-0.28 1.059-0.467 1.317-0.701 0.093-0.077 0.141-0.203 0.191-0.337l0.036-0.088c0.041-0.109 0.103-0.339 0.129-0.464 0.012-0.056 0.024-0.111-0.021-0.147-0.043-0.032-0.139 0.027-0.139 0.027-0.439 0.264-1.533 0.764-2.559 0.785-1.272 0.025-3.849-1.288-4.116-1.427-0.179-0.427-0.357-0.852-0.539-1.276 1.844 1.215 3.373 1.887 4.544 1.989 1.303 0.117 2.32-0.595 2.76-0.891 0.057-0.037 0.115-0.080 0.168-0.121zM26.74 12.077c0.019-0.505 0.231-0.973 0.6-1.317 0.336-0.315 0.789-0.508 1.287-0.508 0.024 0 0.048 0 0.072 0.001l-0.003-0c1.017 0.039 1.828 0.873 1.828 1.896 0 0.022-0 0.043-0.001 0.064l0-0.003c-0.020 0.505-0.232 0.973-0.6 1.316-0.369 0.347-0.851 0.525-1.359 0.508-1.016-0.041-1.825-0.875-1.825-1.897 0-0.021 0-0.042 0.001-0.063l-0 0.003z"></path>
</svg>
