<!-- Generated by IcoMoon.io -->
<svg version="1.1" xmlns="http://www.w3.org/2000/svg" width="32" height="32" viewBox="0 0 32 32">
<title>redis</title>
<path fill="#d82c20" d="M31.992 19.12c-0.013 0.305-0.417 0.647-1.247 1.080-1.708 0.889-10.555 4.528-12.437 5.509-1.884 0.981-2.929 0.972-4.417 0.26-1.488-0.711-10.901-4.515-12.597-5.324-0.847-0.405-1.279-0.747-1.293-1.069v3.235c0 0.323 0.445 0.665 1.293 1.071 1.696 0.811 11.111 4.613 12.597 5.324 1.488 0.712 2.533 0.721 4.417-0.261 1.883-0.981 10.729-4.619 12.437-5.509 0.868-0.452 1.252-0.804 1.252-1.123 0-0.301 0.001-3.189 0.001-3.189-0.001-0.001-0.005-0.001-0.007-0.003zM31.991 13.847c-0.015 0.305-0.417 0.645-1.245 1.079-1.708 0.889-10.555 4.528-12.437 5.509-1.884 0.981-2.929 0.972-4.417 0.261s-10.901-4.515-12.597-5.325c-0.847-0.404-1.279-0.747-1.293-1.068v3.235c0 0.323 0.445 0.664 1.293 1.069 1.696 0.811 11.109 4.613 12.597 5.324 1.488 0.712 2.533 0.721 4.417-0.26 1.883-0.981 10.729-4.62 12.437-5.509 0.868-0.453 1.252-0.805 1.252-1.124 0-0.301 0.001-3.189 0.001-3.189-0.001-0.001-0.005 0-0.008-0.001zM31.991 8.377c0.016-0.325-0.409-0.611-1.265-0.925-1.664-0.609-10.457-4.109-12.141-4.727-1.684-0.616-2.369-0.591-4.348 0.119-1.979 0.711-11.341 4.383-13.007 5.035-0.833 0.328-1.241 0.631-1.227 0.953v3.235c0 0.323 0.445 0.664 1.293 1.069 1.696 0.811 11.109 4.615 12.597 5.325s2.533 0.72 4.417-0.261c1.883-0.981 10.729-4.62 12.437-5.509 0.868-0.453 1.252-0.805 1.252-1.124 0-0.3 0.001-3.189 0.001-3.189zM11.459 11.439l7.415-1.139-2.24 3.284zM27.857 8.481l-4.86 1.919-4.383-1.732 4.856-1.92zM14.984 5.304l-0.717-1.323 2.237 0.875 2.109-0.691-0.571 1.367 2.149 0.805-2.772 0.288-0.621 1.493-1.003-1.665-3.201-0.288zM9.46 7.169c2.189 0 3.963 0.688 3.963 1.536s-1.775 1.536-3.963 1.536-3.964-0.689-3.964-1.536c0-0.848 1.775-1.536 3.964-1.536z"></path>
</svg>
