<svg aria-hidden="true" style="position: absolute; width: 0; height: 0; overflow: hidden;" version="1.1" xmlns="http://www.w3.org/2000/svg" xmlns:xlink="http://www.w3.org/1999/xlink">
<defs>
<symbol id="icon-opensuse" viewBox="0 0 32 32">
<path fill="#73ba25" style="fill: var(--color1, #73ba25)" d="M28.68 10.809c-0.016-0.001-0.034-0.001-0.053-0.001-0.345 0-0.659 0.134-0.892 0.354l0.001-0.001c-0.256 0.242-0.415 0.584-0.415 0.963 0 0.712 0.561 1.292 1.265 1.323l0.003 0c0.013 0.001 0.029 0.001 0.045 0.001 0.713 0 1.294-0.564 1.32-1.27l0-0.002c0-0.013 0.001-0.028 0.001-0.043 0-0.714-0.566-1.296-1.273-1.322l-0.002-0zM28.896 12.252c-0.323 0-0.584-0.175-0.584-0.389 0-0.217 0.261-0.391 0.584-0.391 0.324 0 0.587 0.173 0.587 0.391 0 0.213-0.263 0.389-0.587 0.389zM31.971 13.825c0.009-0.008 0.032-0.027 0.029-0.045-0.073-0.457-0.753-2.672-1.269-3.205-0.141-0.145-0.255-0.288-0.485-0.423-1.864-1.085-6.284-1.741-6.492-1.771 0 0-0.020-0.005-0.035 0.009-0.012 0.011-0.013 0.032-0.013 0.032l-0.020 1.019c-0.452-0.152-3.733-1.213-6.811-1.32-2.608-0.089-6.408-0.428-11.445 2.669l-0.148 0.093c-2.369 1.476-4.005 3.299-4.86 5.415-0.268 0.667-0.629 2.171-0.272 3.584 0.155 0.619 0.441 1.24 0.828 1.796 0.875 1.257 2.343 2.091 3.924 2.232 2.232 0.2 3.921-0.803 4.523-2.68 0.413-1.295 0-3.196-1.584-4.165-1.289-0.788-2.675-0.609-3.479-0.077-0.697 0.463-1.092 1.181-1.085 1.969 0.016 1.4 1.223 2.144 2.089 2.147 0.252 0 0.504-0.044 0.789-0.137 0.115-0.034 0.216-0.079 0.308-0.136l-0.005 0.003 0.033-0.020 0.020-0.013-0.007 0.004c0.191-0.13 0.315-0.346 0.315-0.592 0-0.068-0.009-0.134-0.027-0.196l0.001 0.005c-0.088-0.3-0.36-0.515-0.683-0.515-0.047 0-0.093 0.005-0.137 0.013l0.005-0.001-0.048 0.011-0.067 0.020-0.096 0.033c-0.2 0.049-0.349 0.053-0.381 0.055-0.101-0.007-0.6-0.156-0.6-0.703v-0.007c0-0.201 0.080-0.343 0.124-0.419 0.156-0.244 0.58-0.483 1.155-0.433 0.753 0.067 1.297 0.453 1.657 1.181 0.333 0.677 0.247 1.512-0.227 2.123-0.467 0.605-1.301 0.863-2.412 0.743-1.133-0.121-2.085-0.799-2.586-1.751l-0.009-0.018c-0.519-0.98-0.547-2.143-0.073-3.035 1.133-2.139 3.273-2.116 4.445-1.913 1.736 0.301 3.712 1.903 4.412 3.752 0.113 0.293 0.171 0.528 0.221 0.741l0.076 0.32 1.96 0.957c0.043 0.020 0.057 0.027 0.073 0.015 0.021-0.015 0.009-0.056 0.009-0.056-0.013-0.044-0.040-0.084-0.087-0.633-0.036-0.487-0.112-1.82 0.56-2.48 0.26-0.26 0.656-0.489 0.971-0.564 1.285-0.313 2.792-0.097 4.217 1.552 0.737 0.853 1.097 1.24 1.279 1.415 0 0 0.040 0.040 0.063 0.057 0.024 0.020 0.040 0.036 0.073 0.055 0.060 0.033 2.451 1.133 2.451 1.133s0.029 0.015 0.049-0.011c0.021-0.027 0.001-0.051 0.001-0.051-0.016-0.019-1.516-1.957-1.249-3.553 0.211-1.272 1.223-1.156 2.623-0.999 0.457 0.053 0.977 0.113 1.516 0.125 1.503 0.009 3.123-0.268 4.12-0.705 0.647-0.28 1.059-0.467 1.317-0.701 0.093-0.077 0.141-0.203 0.191-0.337l0.036-0.088c0.041-0.109 0.103-0.339 0.129-0.464 0.012-0.056 0.024-0.111-0.021-0.147-0.043-0.032-0.139 0.027-0.139 0.027-0.439 0.264-1.533 0.764-2.559 0.785-1.272 0.025-3.849-1.288-4.116-1.427-0.179-0.427-0.357-0.852-0.539-1.276 1.844 1.215 3.373 1.887 4.544 1.989 1.303 0.117 2.32-0.595 2.76-0.891 0.057-0.037 0.115-0.080 0.168-0.121zM26.74 12.077c0.019-0.505 0.231-0.973 0.6-1.317 0.336-0.315 0.789-0.508 1.287-0.508 0.024 0 0.048 0 0.072 0.001l-0.003-0c1.017 0.039 1.828 0.873 1.828 1.896 0 0.022-0 0.043-0.001 0.064l0-0.003c-0.020 0.505-0.232 0.973-0.6 1.316-0.369 0.347-0.851 0.525-1.359 0.508-1.016-0.041-1.825-0.875-1.825-1.897 0-0.021 0-0.042 0.001-0.063l-0 0.003z"></path>
</symbol>
<symbol id="icon-redis" viewBox="0 0 32 32">
<path fill="#d82c20" style="fill: var(--color2, #d82c20)" d="M31.992 19.12c-0.013 0.305-0.417 0.647-1.247 1.080-1.708 0.889-10.555 4.528-12.437 5.509-1.884 0.981-2.929 0.972-4.417 0.26-1.488-0.711-10.901-4.515-12.597-5.324-0.847-0.405-1.279-0.747-1.293-1.069v3.235c0 0.323 0.445 0.665 1.293 1.071 1.696 0.811 11.111 4.613 12.597 5.324 1.488 0.712 2.533 0.721 4.417-0.261 1.883-0.981 10.729-4.619 12.437-5.509 0.868-0.452 1.252-0.804 1.252-1.123 0-0.301 0.001-3.189 0.001-3.189-0.001-0.001-0.005-0.001-0.007-0.003zM31.991 13.847c-0.015 0.305-0.417 0.645-1.245 1.079-1.708 0.889-10.555 4.528-12.437 5.509-1.884 0.981-2.929 0.972-4.417 0.261s-10.901-4.515-12.597-5.325c-0.847-0.404-1.279-0.747-1.293-1.068v3.235c0 0.323 0.445 0.664 1.293 1.069 1.696 0.811 11.109 4.613 12.597 5.324 1.488 0.712 2.533 0.721 4.417-0.26 1.883-0.981 10.729-4.62 12.437-5.509 0.868-0.453 1.252-0.805 1.252-1.124 0-0.301 0.001-3.189 0.001-3.189-0.001-0.001-0.005 0-0.008-0.001zM31.991 8.377c0.016-0.325-0.409-0.611-1.265-0.925-1.664-0.609-10.457-4.109-12.141-4.727-1.684-0.616-2.369-0.591-4.348 0.119-1.979 0.711-11.341 4.383-13.007 5.035-0.833 0.328-1.241 0.631-1.227 0.953v3.235c0 0.323 0.445 0.664 1.293 1.069 1.696 0.811 11.109 4.615 12.597 5.325s2.533 0.72 4.417-0.261c1.883-0.981 10.729-4.62 12.437-5.509 0.868-0.453 1.252-0.805 1.252-1.124 0-0.3 0.001-3.189 0.001-3.189zM11.459 11.439l7.415-1.139-2.24 3.284zM27.857 8.481l-4.86 1.919-4.383-1.732 4.856-1.92zM14.984 5.304l-0.717-1.323 2.237 0.875 2.109-0.691-0.571 1.367 2.149 0.805-2.772 0.288-0.621 1.493-1.003-1.665-3.201-0.288zM9.46 7.169c2.189 0 3.963 0.688 3.963 1.536s-1.775 1.536-3.963 1.536-3.964-0.689-3.964-1.536c0-0.848 1.775-1.536 3.964-1.536z"></path>
</symbol>
<symbol id="icon-netflix" viewBox="0 0 32 32">
<path fill="#e50914" style="fill: var(--color3, #e50914)" d="M7.187 0.005l6.333 17.947v-0.009l0.501 1.413c2.784 7.877 4.28 12.1 4.288 12.109 0.005 0 0.427 0.027 0.936 0.053 1.541 0.067 3.453 0.24 4.901 0.413 0.333 0.040 0.621 0.053 0.64 0.040l-6.28-17.813-0.581-1.64-3.231-9.133c-0.613-1.733-1.133-3.211-1.16-3.267l-0.041-0.119zM18.531 0.016l-0.013 7.075-0.011 7.075-0.583-1.643v-0.003l-0.753 15.747c0.74 2.089 1.136 3.204 1.14 3.209 0.005 0.005 0.427 0.032 0.936 0.056 1.543 0.067 3.453 0.24 4.907 0.413 0.333 0.040 0.623 0.053 0.64 0.040s0.027-7.227 0.023-16.013l-0.011-15.959zM7.187 0.003v15.987c0 8.792 0.009 15.993 0.020 16.004s0.555-0.040 1.209-0.115c0.653-0.080 1.56-0.173 2.013-0.213 0.691-0.067 2.757-0.2 2.997-0.2 0.069 0 0.075-0.36 0.084-6.773l0.011-6.773 0.507 1.413 0.173 0.501 0.76-15.733-0.253-0.728-1.173-3.253-0.040-0.116z"></path>
</symbol>
<symbol id="icon-oracle" viewBox="0 0 32 32">
<path fill="#f80000" style="fill: var(--color4, #f80000)" d="M21.883 5.883h-11.76c-0.002 0-0.003 0-0.005 0-5.588 0-10.117 4.53-10.117 10.117 0 5.586 4.527 10.114 10.112 10.117h11.771c5.588 0 10.117-4.53 10.117-10.117s-4.53-10.117-10.117-10.117v0zM21.625 22.552h-11.244c-3.562-0.074-6.421-2.979-6.421-6.552s2.859-6.478 6.414-6.552l0.007-0h11.244c3.619 0 6.552 2.933 6.552 6.552s-2.933 6.552-6.552 6.552v0z"></path>
</symbol>
<symbol id="icon-ibm" viewBox="0 0 32 32">
<path fill="#054ada" style="fill: var(--color5, #054ada)" d="M0 21.525h6.223v0.891h-6.223zM0 19.816h6.223v0.893h-6.223zM1.773 18.111h2.671v0.895h-2.671zM1.773 16.407h2.671v0.893h-2.671zM1.773 14.7h2.671v0.895h-2.671zM1.773 12.992h2.671v0.895h-2.671zM0 11.288h6.223v0.893h-6.223zM0 9.583h6.223v0.893h-6.223zM7.109 20.709h9.569c0.16-0.275 0.283-0.577 0.356-0.893h-9.924zM15.933 16.407h-7.044v0.893h7.791c-0.205-0.345-0.454-0.64-0.742-0.89l-0.005-0.004zM8.888 14.7v0.895h7.047c0.297-0.251 0.547-0.552 0.745-0.895zM16.679 11.288h-9.569v0.893h9.924c-0.089-0.34-0.21-0.637-0.365-0.913l0.010 0.020zM13.737 9.583h-6.628v0.893h8.913c-0.598-0.554-1.4-0.893-2.283-0.893-0.001 0-0.002 0-0.003 0h0zM8.888 12.992h2.667v0.895h-2.667zM14.223 13.887h2.789c0.079-0.285 0.12-0.587 0.12-0.895h-2.909zM8.888 18.111h2.665v0.895h-2.667zM14.223 18.111v0.895h2.909c0-0.307-0.041-0.609-0.12-0.895zM7.109 22.409l6.627 0.009c0.889 0 1.691-0.343 2.289-0.893h-8.916zM17.779 21.525h4.443v0.891h-4.443zM17.779 19.816h4.443v0.893h-4.443zM19.553 18.111h2.667v0.895h-2.667zM19.553 16.407h2.667v0.893h-2.667zM23.459 11.288h-5.68v0.893h5.987zM22.869 9.583h-5.091v0.892h5.397zM27.553 21.525h4.447v0.891h-4.447zM27.553 19.816h4.447v0.893h-4.447zM27.553 18.111h2.667v0.895h-2.667zM27.553 16.407h2.667v0.893h-2.667zM27.553 15.595h2.667v-0.895h-5.081l-0.251 0.723-0.251-0.723h-5.084v0.895h2.667v-0.821l0.284 0.821h4.767l0.283-0.821zM30.221 12.992h-4.493l-0.307 0.895h4.8zM26.911 9.583l-0.308 0.892h5.397v-0.892zM24.888 22.409l0.307-0.884h-0.615zM24.299 20.709h1.179l0.317-0.893h-1.809zM23.7 19.005h2.376l0.313-0.895h-3.004zM23.103 17.3h3.572l0.305-0.893h-4.184zM19.553 13.887h4.803l-0.308-0.895h-4.495zM26.013 12.181h5.987v-0.893h-5.683z"></path>
</symbol>
<symbol id="icon-intellijidea" viewBox="0 0 32 32">
<path d="M0 0v32h32v-32zM4.964 4.148h6.667v2.445h-1.853v8.369h1.853v2.445h-6.667v-2.445h1.925v-8.369h-1.925zM19.704 4.148h2.963v8.667c0 0.816-0.073 1.481-0.296 2.075-0.223 0.592-0.52 1.036-0.964 1.48-0.369 0.372-0.888 0.743-1.48 0.891-0.571 0.233-1.233 0.369-1.926 0.371h-0.001c-1.037 0-1.925-0.223-2.592-0.593-0.662-0.381-1.226-0.85-1.698-1.399l-0.007-0.009 1.853-2.073c0.369 0.445 0.74 0.74 1.111 0.963 0.369 0.223 0.815 0.371 1.26 0.371 0.519 0 0.961-0.148 1.333-0.519 0.295-0.371 0.444-0.889 0.444-1.704zM2.963 26h12v2h-12z"></path>
</symbol>
<symbol id="icon-intel" viewBox="0 0 32 32">
<path fill="#0071c5" style="fill: var(--color6, #0071c5)" d="M9.427 14.4v5.169h-1.644v-6.497l3.396 0.003c1.44 0 1.932 1.019 1.932 1.941v4.553h-1.64v-4.544c0-0.388-0.199-0.625-0.684-0.625zM20.612 14.323c-0.563 0-0.997 0.288-1.18 0.68-0.103 0.223-0.156 0.463-0.157 0.707h2.531c-0.031-0.707-0.351-1.387-1.193-1.387zM19.275 16.829c0 0.839 0.524 1.46 1.459 1.46 0.725 0 1.087-0.2 1.508-0.621l1.016 0.972c-0.649 0.641-1.335 1.031-2.536 1.031-1.573 0-3.080-0.857-3.080-3.36 0-2.14 1.313-3.349 3.041-3.349 1.753 0 2.767 1.417 2.767 3.273v0.591h-4.175zM16.251 19.559c-1.339 0-1.909-0.932-1.909-1.855v-6.4h1.643v1.769h1.237v1.328h-1.239v3.2c0 0.379 0.18 0.587 0.572 0.587h0.667v1.369zM6.319 12.175h-1.656v-1.573h1.656zM6.323 19.635c-1.24-0.117-1.661-0.868-1.661-1.74v-4.82h1.659v6.565zM26.063 19.496c-1.239-0.12-1.657-0.869-1.657-1.737v-7.38h1.657v9.12zM31.859 11.445c-1.5-7.324-15.723-7.788-24.885-2.209v0.616c9.153-4.704 22.139-4.677 23.321 2.067 0.395 2.233-0.861 4.557-3.105 5.896v1.748c2.7-0.989 5.473-4.196 4.669-8.117zM15.197 24.259c-6.323 0.584-12.915-0.335-13.836-5.276-0.449-2.436 0.663-5.020 2.131-6.623v-0.857c-2.649 2.324-4.087 5.267-3.259 8.743 1.056 4.46 6.713 6.985 15.345 6.145 3.417-0.332 7.888-1.432 10.996-3.139v-2.421c-2.821 1.681-7.489 3.069-11.377 3.428zM27.979 10.867c0-0.080-0.049-0.105-0.155-0.105h-0.103v0.227l0.103 0.003c0.105 0 0.155-0.033 0.155-0.112zM28.139 11.431h-0.121c-0.012 0-0.024-0.005-0.028-0.016l-0.167-0.284c-0.004-0.007-0.017-0.013-0.025-0.013h-0.075v0.283c0 0.016-0.012 0.033-0.031 0.033h-0.109c-0.015 0-0.028-0.019-0.028-0.033v-0.711c0-0.039 0.016-0.060 0.051-0.064 0.067-0.007 0.135-0.008 0.203-0.008 0.203 0 0.328 0.061 0.328 0.251v0.013c0 0.12-0.061 0.18-0.152 0.211l0.173 0.292c0 0.008 0.007 0.016 0.007 0.024 0.003 0.009-0.005 0.023-0.025 0.023v0.003zM27.848 10.485c-0.301 0-0.544 0.245-0.544 0.547 0.001 0.303 0.248 0.545 0.548 0.544 0.3 0 0.541-0.243 0.545-0.541-0.003-0.301-0.247-0.548-0.549-0.549zM27.848 11.695c-0.364 0-0.66-0.296-0.66-0.66s0.296-0.66 0.659-0.66h0.001c0.361 0 0.66 0.299 0.66 0.66 0 0.365-0.299 0.66-0.66 0.66z"></path>
</symbol>
<symbol id="icon-microsoft" viewBox="0 0 32 32">
<path fill="#666" style="fill: var(--color7, #666)" d="M15.2 32h-15.2v-15.2h15.2zM32 32h-15.2v-15.2h15.2zM15.2 15.2h-15.2v-15.2h15.2zM32 15.2h-15.2v-15.2h15.2z"></path>
</symbol>
<symbol id="icon-github" viewBox="0 0 32 32">
<path d="M16 0.396c-8.84 0-16 7.164-16 16 0 7.071 4.584 13.067 10.94 15.18 0.8 0.151 1.093-0.344 1.093-0.769 0-0.38-0.013-1.387-0.020-2.72-4.451 0.965-5.389-2.147-5.389-2.147-0.728-1.847-1.78-2.34-1.78-2.34-1.449-0.992 0.112-0.972 0.112-0.972 1.607 0.112 2.451 1.648 2.451 1.648 1.427 2.447 3.745 1.74 4.66 1.331 0.144-1.035 0.556-1.74 1.013-2.14-3.553-0.4-7.288-1.776-7.288-7.907 0-1.747 0.62-3.173 1.647-4.293-0.18-0.404-0.72-2.031 0.14-4.235 0 0 1.34-0.429 4.4 1.64 1.28-0.356 2.64-0.532 4-0.54 1.36 0.008 2.72 0.184 4 0.54 3.040-2.069 4.38-1.64 4.38-1.64 0.86 2.204 0.32 3.831 0.16 4.235 1.020 1.12 1.64 2.547 1.64 4.293 0 6.147-3.74 7.5-7.3 7.893 0.56 0.48 1.080 1.461 1.080 2.96 0 2.141-0.020 3.861-0.020 4.381 0 0.42 0.28 0.92 1.1 0.76 6.401-2.099 10.981-8.099 10.981-15.159 0-8.836-7.164-16-16-16z"></path>
</symbol>
<symbol id="icon-facebook" viewBox="0 0 32 32">
<path fill="#1877f2" style="fill: var(--color8, #1877f2)" d="M31.997 15.999c0-8.836-7.163-15.999-15.999-15.999s-15.999 7.163-15.999 15.999c0 7.985 5.851 14.604 13.499 15.804v-11.18h-4.062v-4.625h4.062v-3.525c0-4.010 2.389-6.225 6.043-6.225 1.75 0 3.581 0.313 3.581 0.313v3.937h-2.017c-1.987 0-2.607 1.233-2.607 2.498v3.001h4.437l-0.709 4.625h-3.728v11.18c7.649-1.2 13.499-7.819 13.499-15.804z"></path>
</symbol>
<symbol id="icon-docker" viewBox="0 0 32 32">
<path fill="#1488c6" style="fill: var(--color9, #1488c6)" d="M6.427 23.033c-0.912 0-1.739-0.747-1.739-1.653s0.747-1.657 1.74-1.657c0.997 0 1.747 0.747 1.747 1.656s-0.829 1.653-1.748 1.655zM27.776 14.016c-0.18-1.323-1-2.4-2.080-3.227l-0.42-0.333-0.339 0.413c-0.659 0.747-0.92 2.071-0.84 3.060 0.080 0.749 0.32 1.493 0.739 2.072-0.339 0.173-0.757 0.333-1.080 0.503-0.76 0.249-1.499 0.333-2.24 0.333h-21.387l-0.080 0.493c-0.16 1.576 0.080 3.227 0.749 4.72l0.325 0.58v0.080c2 3.311 5.56 4.8 9.437 4.8 7.459 0 13.576-3.227 16.476-10.177 1.9 0.083 3.819-0.413 4.72-2.235l0.24-0.413-0.4-0.249c-1.080-0.659-2.56-0.747-3.8-0.413zM17.099 12.693h-3.237v3.227h3.24v-3.229zM17.099 8.636h-3.237v3.227h3.24v-3.223zM17.099 4.497h-3.237v3.227h3.24v-3.227zM21.059 12.693h-3.219v3.227h3.227v-3.229zM9.061 12.693h-3.217v3.227h3.229v-3.229zM13.101 12.693h-3.2v3.227h3.219v-3.229zM5.061 12.693h-3.195v3.227h3.237v-3.229zM13.101 8.636h-3.2v3.227h3.219v-3.223zM9.041 8.636h-3.192v3.227h3.217v-3.223z"></path>
</symbol>
<symbol id="icon-airbnb" viewBox="0 0 32 32">
<path fill="#ff5a5f" style="fill: var(--color10, #ff5a5f)" d="M15.997 24.356c-1.803-2.261-2.863-4.243-3.216-5.94-0.351-1.368-0.212-2.463 0.388-3.285 0.636-0.947 1.583-1.407 2.827-1.407s2.189 0.46 2.825 1.416c0.595 0.813 0.744 1.909 0.381 3.285-0.388 1.731-1.447 3.712-3.205 5.931zM28.793 25.876c-0.247 1.66-1.379 3.037-2.933 3.709-3.001 1.307-5.973-0.777-8.517-3.604 4.207-5.267 4.984-9.367 3.179-12.019-1.060-1.52-2.577-2.26-4.524-2.26-3.924 0-6.081 3.32-5.233 7.173 0.493 2.085 1.801 4.456 3.887 7.107-1.307 1.445-2.545 2.473-3.64 3.109-0.848 0.459-1.66 0.743-2.437 0.811-3.569 0.532-6.368-2.931-5.097-6.503 0.176-0.46 0.527-1.307 1.127-2.615l0.033-0.071c1.951-4.235 4.32-9.048 7.043-14.387l0.071-0.176 0.773-1.487c0.6-1.096 0.847-1.587 1.801-2.191 0.46-0.279 1.025-0.419 1.66-0.419 1.272 0 2.263 0.743 2.687 1.341 0.211 0.319 0.46 0.743 0.776 1.271l0.744 1.451 0.107 0.212c2.72 5.336 5.092 10.14 7.035 14.385l0.035 0.033 0.711 1.627 0.424 1.019c0.324 0.816 0.392 1.628 0.292 2.481zM30.419 22.691c-0.248-0.777-0.672-1.695-1.2-2.791v-0.040c-2.516-5.34-4.853-10.14-7.072-14.453l-0.148-0.216c-1.581-3.243-2.713-5.191-6.001-5.191-3.251 0-4.632 2.259-6.044 5.196l-0.108 0.213c-2.224 4.312-4.56 9.119-7.068 14.456v0.071l-0.744 1.625c-0.28 0.672-0.423 1.024-0.46 1.129-1.8 4.949 1.909 9.296 6.4 9.296 0.036 0 0.176 0 0.352-0.036h0.496c2.333-0.284 4.737-1.767 7.176-4.421 2.437 2.651 4.844 4.137 7.173 4.421h0.496c0.176 0.036 0.317 0.036 0.352 0.036 4.491 0.004 8.2-4.347 6.4-9.296z"></path>
</symbol>
<symbol id="icon-apachekafka" viewBox="0 0 32 32">
<path d="M21.683 17.724c-1.247 0-2.363 0.552-3.128 1.421l-1.96-1.388c0.208-0.573 0.328-1.188 0.328-1.832 0-0.633-0.115-1.237-0.316-1.803l1.956-1.373c0.765 0.865 1.879 1.413 3.121 1.413 2.3 0 4.172-1.871 4.172-4.172s-1.872-4.172-4.172-4.172-4.172 1.871-4.172 4.172c0 0.412 0.063 0.809 0.173 1.185l-1.957 1.373c-0.817-1.012-1.995-1.721-3.336-1.937v-2.359c1.889-0.397 3.313-2.076 3.313-4.081 0-2.301-1.872-4.172-4.172-4.172s-4.171 1.871-4.171 4.172c0 1.979 1.387 3.637 3.239 4.063v2.389c-2.527 0.444-4.455 2.649-4.455 5.301 0 2.665 1.947 4.879 4.493 5.308v2.523c-1.871 0.411-3.276 2.080-3.276 4.072-0.001 2.301 1.869 4.172 4.169 4.172s4.172-1.871 4.172-4.172c0-1.993-1.405-3.661-3.276-4.072v-2.523c1.288-0.217 2.453-0.895 3.28-1.908l1.973 1.397c-0.109 0.372-0.171 0.765-0.171 1.173 0 2.3 1.872 4.172 4.172 4.172s4.172-1.871 4.172-4.172-1.873-4.172-4.173-4.172zM21.683 7.969c1.116 0 2.023 0.908 2.023 2.023s-0.907 2.023-2.023 2.023c-1.115 0-2.023-0.908-2.023-2.023s0.908-2.023 2.023-2.023zM9.511 4.172c0-1.115 0.907-2.023 2.023-2.023s2.023 0.908 2.023 2.023-0.907 2.023-2.023 2.023-2.023-0.908-2.023-2.023zM13.556 27.828c0 1.115-0.907 2.023-2.023 2.023s-2.023-0.908-2.023-2.023 0.907-2.023 2.023-2.023 2.023 0.908 2.023 2.023zM11.533 18.747c-1.556 0-2.821-1.265-2.821-2.821s1.265-2.821 2.821-2.821 2.821 1.265 2.821 2.821-1.265 2.821-2.821 2.821zM21.683 23.919c-1.116 0-2.023-0.908-2.023-2.023s0.907-2.023 2.023-2.023 2.023 0.908 2.023 2.023-0.907 2.023-2.023 2.023z"></path>
</symbol>
<symbol id="icon-mozilla" viewBox="0 0 32 32">
<path d="M0 32v-32h32v32zM21.853 9.013l-0.307 0.040-0.293 0.053-0.28 0.080-0.533 0.187-0.253 0.12-0.24 0.133-0.227 0.147-0.227 0.16-0.213 0.173-0.2 0.187-0.187 0.2-0.173 0.213-0.173 0.227-0.147 0.227-0.147 0.253-0.133 0.253-0.12 0.28-0.107-0.293-0.133-0.28-0.133-0.267-0.16-0.253-0.173-0.227-0.187-0.213-0.2-0.2-0.2-0.187-0.227-0.173-0.227-0.147-0.253-0.147-0.24-0.12-0.267-0.107-0.267-0.093-0.267-0.080-0.28-0.067-0.293-0.053-0.587-0.053h-0.573l-0.28 0.027-0.267 0.027-0.267 0.040-0.253 0.067-0.24 0.067-0.24 0.080-0.24 0.093-0.213 0.107-0.227 0.107-0.4 0.267-0.187 0.147-0.187 0.16-0.173 0.173-0.16 0.173-0.16 0.187-0.147 0.2-0.133 0.213-0.12 0.213v-2.067h-5.8v2.96h1.827v7.813h-1.827v3.013h8.44v-3.013h-2.64v-5.080l0.013-0.28 0.040-0.267 0.040-0.253 0.053-0.24 0.067-0.24 0.080-0.213 0.093-0.213 0.107-0.187 0.12-0.187 0.147-0.16 0.147-0.147 0.16-0.133 0.187-0.12 0.2-0.107 0.2-0.080 0.227-0.067 0.253-0.053 0.253-0.027 0.28-0.013h0.227l0.213 0.027 0.213 0.040 0.187 0.053 0.187 0.067 0.173 0.080 0.16 0.093 0.147 0.12 0.133 0.133 0.133 0.147 0.107 0.16 0.107 0.187 0.16 0.427 0.067 0.253 0.053 0.253 0.040 0.28 0.040 0.307 0.013 0.333v8.12h5.733v-3.013h-1.827v-4.8l0.027-0.56 0.027-0.267 0.053-0.253 0.053-0.24 0.067-0.24 0.080-0.213 0.093-0.213 0.107-0.187 0.12-0.187 0.133-0.16 0.16-0.147 0.16-0.133 0.187-0.12 0.187-0.107 0.213-0.080 0.227-0.067 0.253-0.053 0.253-0.027 0.28-0.013h0.227l0.213 0.027 0.213 0.040 0.187 0.053 0.187 0.067 0.173 0.080 0.16 0.093 0.147 0.12 0.133 0.133 0.12 0.147 0.12 0.16 0.107 0.187 0.16 0.427 0.067 0.253 0.053 0.253 0.040 0.28 0.040 0.307 0.013 0.333v8.12h5.733v-3.013h-1.827v-6.293l-0.013-0.48-0.053-0.44-0.080-0.427-0.107-0.4-0.133-0.373-0.16-0.347-0.187-0.32-0.213-0.307-0.24-0.267-0.24-0.253-0.28-0.213-0.28-0.2-0.307-0.173-0.32-0.16-0.333-0.12-0.333-0.107-0.36-0.080-0.347-0.053-0.373-0.040h-0.693z"></path>
</symbol>
<symbol id="icon-gnome" viewBox="0 0 32 32">
<path fill="#4a86cf" style="fill: var(--color11, #4a86cf)" d="M23.82 0c-5.067 0-6.017 7.219-3.167 7.219s8.235-7.219 3.167-7.219zM15.989 0.885c-0.080 0-0.165 0.004-0.255 0.016-2.853 0.369-1.847 5.329-0.328 5.421 1.471 0.091 3.077-5.428 0.583-5.437zM11.049 2.845c-0.151 0.004-0.316 0.041-0.495 0.116-2.293 0.947-0.349 4.848 0.935 4.587 1.185-0.243 1.339-4.741-0.44-4.703zM7.396 5.907c-0.243 0.001-0.467 0.083-0.647 0.221l0.003-0.002c-1.835 1.267 0.616 4.332 1.696 3.856 0.944-0.416 0.343-4.028-1.052-4.075zM17.579 8.251c-3.893 0.033-8.848 2.008-9.712 5.872-0.957 4.289 3.947 10.24 9.063 10.24 2.517 0 5.421-2.275 5.964-5.155 0.415-2.196-4.883-1.315-4.693 0.139 0.228 1.741-1.277 2.6-2.752 1.476-4.693-3.573 7.773-5.355 6.951-10.237-0.267-1.583-2.325-2.357-4.82-2.335zM7.024 26.92c-0.715 0-1.277 0.227-1.688 0.68s-0.617 1.073-0.617 1.863c0 0.78 0.204 1.397 0.607 1.853 0.404 0.455 0.951 0.683 1.64 0.683 0.344 0 1.164 0.005 1.717-0.459v-2.353h-1.664v0.845h0.859v0.847c-0.131 0.107-0.376 0.205-0.773 0.205-0.391 0-0.725-0.141-0.947-0.424-0.223-0.281-0.333-0.68-0.333-1.197 0-0.523 0.116-0.924 0.345-1.204 0.231-0.281 0.559-0.424 0.984-0.424 0.402 0 0.778 0.112 1.099 0.305l-0.010-0.005 0.288-0.849c-0.206-0.113-0.444-0.207-0.695-0.269l-0.021-0.004c-0.234-0.058-0.503-0.092-0.779-0.092-0.004 0-0.008 0-0.012 0h0.001zM15.773 26.92c-0.627 0.017-1.123 0.243-1.487 0.675-0.377 0.451-0.568 1.075-0.568 1.867s0.191 1.413 0.568 1.863c0.379 0.451 0.9 0.675 1.565 0.675 0.667 0 1.187-0.224 1.565-0.675 0.377-0.451 0.564-1.071 0.564-1.861 0-0.793-0.187-1.417-0.565-1.867-0.377-0.451-0.899-0.676-1.564-0.676zM9.413 27.009v4.893h0.909v-2.94l2.131 2.94h0.675v-4.893h-0.909v2.943l-2.131-2.943zM18.891 27.009l-0.519 4.893h1.013l0.312-3.164 0.953 3.179h0.677l0.956-3.075 0.312 3.060h1.011l-0.52-4.893h-1.149l-0.951 3.053-0.943-3.053zM24.336 27.009v4.893h2.945v-0.953h-1.877v-1.12h1.396v-0.852h-1.396v-1.015h1.815v-0.953zM15.82 27.835h0.032c0.327 0 0.58 0.143 0.76 0.427s0.268 0.685 0.268 1.2-0.088 0.912-0.268 1.196c-0.15 0.257-0.424 0.427-0.738 0.427-0.008 0-0.015-0-0.023-0l0.001 0c-0.007 0-0.014 0-0.022 0-0.314 0-0.588-0.17-0.735-0.423l-0.002-0.004c-0.179-0.284-0.271-0.681-0.271-1.195 0-0.516 0.092-0.917 0.271-1.2 0.147-0.255 0.417-0.424 0.726-0.428h0.001z"></path>
</symbol>
<symbol id="icon-microphone" viewBox="0 0 32 32">
<path d="M18.251 12.906c0.617-2.099 0.356-4.4-0.782-6.327 0.025 0.035-10.879 11.027-10.957 10.958 1.895 1.119 4.196 1.434 6.267 0.856-0.015-0.053 5.428-5.495 5.472-5.487zM16.306 4.826c-1.469-1.448-3.571-2.43-5.794-2.43-4.493 0-8.136 3.652-8.136 8.156 0 2.198 1 4.326 2.41 5.793 0.003 0 11.451-11.425 11.52-11.519zM27.812 26.466c0 0 0.266-2.298-0.397-2.961-0.044-0.044-7.646-9.325-7.646-9.325l-5.657 5.657 9.281 7.689c0.619 0.707 3.005 0.354 3.005 0.354l1.9 1.724 1.326-1.326-1.812-1.812z"></path>
</symbol>
<symbol id="icon-airplay" viewBox="0 0 24 24">
<path d="M21 3q0.797 0 1.406 0.609t0.609 1.406v12q0 0.797-0.609 1.383t-1.406 0.586h-3.984v-1.969h3.984v-12h-18v12h3.984v1.969h-3.984q-0.797 0-1.406-0.586t-0.609-1.383v-12q0-0.797 0.609-1.406t1.406-0.609h18zM6 21.984l6-6 6 6h-12z"></path>
</symbol>
<symbol id="icon-forum" viewBox="0 0 24 24">
<path d="M17.016 12q0 0.422-0.305 0.703t-0.727 0.281h-9.984l-3.984 4.031v-14.016q0-0.422 0.281-0.703t0.703-0.281h12.984q0.422 0 0.727 0.281t0.305 0.703v9zM21 6q0.422 0 0.703 0.281t0.281 0.703v15l-3.984-3.984h-11.016q-0.422 0-0.703-0.281t-0.281-0.703v-2.016h12.984v-9h2.016z"></path>
</symbol>
<symbol id="icon-clear" viewBox="0 0 24 24">
<path d="M18.984 6.422l-5.578 5.578 5.578 5.578-1.406 1.406-5.578-5.578-5.578 5.578-1.406-1.406 5.578-5.578-5.578-5.578 1.406-1.406 5.578 5.578 5.578-5.578z"></path>
</symbol>
<symbol id="icon-keyboard_arrow_down" viewBox="0 0 24 24">
<path d="M7.406 8.578l4.594 4.594 4.594-4.594 1.406 1.406-6 6-6-6z"></path>
</symbol>
<symbol id="icon-devices_other" viewBox="0 0 24 24">
<path d="M21 18v-8.016h-3.984v8.016h3.984zM21.984 8.016q0.375 0 0.703 0.305t0.328 0.68v9.984q0 0.375-0.328 0.703t-0.703 0.328h-6q-0.375 0-0.68-0.328t-0.305-0.703v-9.984q0-0.375 0.305-0.68t0.68-0.305h6zM11.016 17.484q0.609 0 1.055-0.445t0.445-1.055-0.445-1.055-1.055-0.445-1.055 0.445-0.445 1.055 0.445 1.055 1.055 0.445zM12.984 12v1.781q1.031 0.938 1.031 2.203 0 1.313-1.031 2.25v1.781h-3.984v-1.781q-0.984-0.891-0.984-2.25 0-1.313 0.984-2.203v-1.781h3.984zM3 6v12h3.984v2.016h-3.984q-0.797 0-1.406-0.609t-0.609-1.406v-12q0-0.797 0.609-1.406t1.406-0.609h18v2.016h-18z"></path>
</symbol>
<symbol id="icon-category" viewBox="0 0 24 24">
<path d="M3 13.5h8.016v8.016h-8.016v-8.016zM12.984 17.484q0-1.875 1.313-3.188t3.188-1.313 3.188 1.313 1.313 3.188-1.313 3.188-3.188 1.313-3.188-1.313-1.313-3.188zM12 2.016l5.484 9h-10.969z"></path>
</symbol>
<symbol id="icon-personal_video" viewBox="0 0 24 24">
<path d="M21 17.016v-12h-18v12h18zM21 3q0.844 0 1.43 0.586t0.586 1.43l-0.047 12q0 0.797-0.586 1.383t-1.383 0.586h-5.016v2.016h-7.969v-2.016h-5.016q-0.844 0-1.43-0.563t-0.586-1.406v-12q0-0.844 0.586-1.43t1.43-0.586h18z"></path>
</symbol>
<symbol id="icon-home" viewBox="0 0 24 24">
<path d="M9.984 20.016h-4.969v-8.016h-3l9.984-9 9.984 9h-3v8.016h-4.969v-6h-4.031v6z"></path>
</symbol>
<symbol id="icon-mic_external_on" viewBox="0 0 24 24">
<path d="M9.234 6.984h-4.453q-0.375-0.375-0.586-0.891t-0.211-1.078q0-0.844 0.422-1.523t1.102-1.078 1.477-0.398q0.844 0 1.523 0.398t1.078 1.078 0.398 1.523q0 0.563-0.211 1.078t-0.539 0.891zM15.984 2.016q1.125 0 2.039 0.539t1.453 1.43 0.539 2.016v15.984h-2.016v-15.984q0-0.844-0.586-1.43t-1.43-0.586q-0.797 0-1.383 0.586t-0.586 1.43v12q0 1.125-0.539 2.016t-1.453 1.43-2.039 0.539q-1.078 0-1.992-0.539t-1.453-1.43-0.539-2.016h-0.984l-1.031-9.984h6l-0.984 9.984h-0.984q0 0.844 0.586 1.43t1.383 0.586q0.844 0 1.43-0.586t0.586-1.43v-12q0-1.125 0.539-2.016t1.453-1.43 1.992-0.539z"></path>
</symbol>
<symbol id="icon-table_rows" viewBox="0 0 24 24">
<path d="M21.984 6.984h-19.969v-4.969h19.969v4.969zM21.984 9.516h-19.969v4.969h19.969v-4.969zM21.984 17.016h-19.969v4.969h19.969v-4.969z"></path>
</symbol>
<symbol id="icon-coronavirus" viewBox="0 0 24 24">
<path d="M21.234 10.5q-0.281 0-0.516 0.211t-0.234 0.539h-1.547q-0.188-2.063-1.5-3.656l1.078-1.078h0.047q0.188 0.234 0.492 0.234t0.539-0.234 0.234-0.539-0.234-0.539l-1.031-1.031q-0.234-0.234-0.539-0.234t-0.539 0.234-0.234 0.539 0.234 0.492l-1.125 1.125q-0.75-0.656-1.664-1.031t-1.945-0.516v-1.5q0.328 0 0.539-0.234t0.211-0.516q0-0.328-0.211-0.539t-0.539-0.211h-1.5q-0.328 0-0.539 0.211t-0.211 0.539q0 0.281 0.211 0.516t0.539 0.234v1.547q-1.031 0.094-1.969 0.492t-1.688 1.008l-1.078-1.078v-0.047q0.234-0.188 0.234-0.492t-0.234-0.539-0.539-0.234-0.539 0.234l-1.031 1.031q-0.234 0.234-0.234 0.539t0.234 0.539 0.539 0.234 0.492-0.234l1.125 1.125q-0.656 0.75-1.031 1.664t-0.469 1.945h-1.547q0-0.328-0.234-0.539t-0.516-0.211q-0.328 0-0.539 0.211t-0.211 0.539v1.5q0 0.328 0.211 0.539t0.539 0.211q0.281 0 0.516-0.211t0.234-0.539h1.547q0.094 1.031 0.492 1.945t1.008 1.664l-1.125 1.125q-0.188-0.234-0.492-0.234t-0.539 0.234-0.234 0.539 0.234 0.539l1.031 1.031q0.234 0.234 0.539 0.234t0.539-0.234 0.234-0.539-0.234-0.492v-0.047l1.078-1.078q0.75 0.609 1.688 1.008t1.969 0.492v1.547q-0.328 0-0.539 0.234t-0.211 0.516q0 0.328 0.211 0.539t0.539 0.211h1.5q0.281 0 0.516-0.211t0.234-0.539q0-0.281-0.234-0.516t-0.516-0.234v0-1.547q0.984-0.094 1.922-0.492t1.688-1.008l1.078 1.125q-0.188 0.188-0.188 0.492t0.234 0.539q0.188 0.234 0.516 0.234t0.516-0.234l1.078-1.078q0.234-0.188 0.234-0.516t-0.234-0.516q-0.234-0.234-0.539-0.234t-0.539 0.234v0l-1.078-1.078q0.609-0.797 1.008-1.711t0.492-1.945h1.547q0 0.281 0.234 0.516t0.516 0.234q0.328 0 0.539-0.234t0.211-0.516v-1.5q0-0.328-0.211-0.539t-0.539-0.211zM13.734 8.016q0.422 0 0.727 0.281t0.305 0.703-0.305 0.703-0.727 0.281q-0.375 0-0.68-0.281t-0.305-0.703 0.305-0.703 0.68-0.281zM12 12.984q-0.422 0-0.703-0.281t-0.281-0.703 0.281-0.703 0.703-0.281 0.703 0.281 0.281 0.703-0.281 0.703-0.703 0.281zM10.266 8.016q0.375 0 0.68 0.281t0.305 0.703-0.305 0.703-0.68 0.281q-0.422 0-0.727-0.281t-0.305-0.703 0.305-0.703 0.727-0.281zM8.484 12.984q-0.375 0-0.68-0.281t-0.305-0.703 0.305-0.703 0.68-0.281q0.422 0 0.727 0.281t0.305 0.703-0.305 0.703-0.727 0.281zM10.266 15.984q-0.422 0-0.727-0.281t-0.305-0.703 0.305-0.703 0.727-0.281q0.375 0 0.68 0.281t0.305 0.703-0.305 0.703-0.68 0.281zM13.734 15.984q-0.375 0-0.68-0.281t-0.305-0.703 0.305-0.703 0.68-0.281q0.422 0 0.727 0.281t0.305 0.703-0.305 0.703-0.727 0.281zM14.484 12q0-0.422 0.305-0.703t0.727-0.281q0.375 0 0.68 0.281t0.305 0.703-0.305 0.703-0.68 0.281q-0.422 0-0.727-0.281t-0.305-0.703z"></path>
</symbol>
<symbol id="icon-social-twitter" viewBox="0 0 24 24">
<path d="M18.89 7.012c0.808-0.496 1.343-1.173 1.605-2.034-0.786 0.417-1.569 0.703-2.351 0.861-0.703-0.756-1.593-1.14-2.66-1.14-1.043 0-1.924 0.366-2.643 1.078-0.715 0.717-1.076 1.588-1.076 2.605 0 0.309 0.039 0.585 0.117 0.819-3.076-0.105-5.622-1.381-7.628-3.837-0.34 0.601-0.51 1.213-0.51 1.846 0 1.301 0.549 2.332 1.645 3.089-0.625-0.053-1.176-0.211-1.645-0.47 0 0.929 0.273 1.705 0.82 2.388 0.549 0.676 1.254 1.107 2.115 1.291-0.312 0.080-0.641 0.118-0.979 0.118-0.312 0-0.533-0.026-0.664-0.083 0.23 0.757 0.664 1.371 1.291 1.841 0.625 0.472 1.344 0.721 2.152 0.743-1.332 1.045-2.855 1.562-4.578 1.562-0.422 0-0.721-0.006-0.902-0.038 1.697 1.102 3.586 1.649 5.676 1.649 2.139 0 4.029-0.542 5.674-1.626 1.645-1.078 2.859-2.408 3.639-3.974 0.784-1.564 1.172-3.192 1.172-4.892v-0.468c0.758-0.57 1.371-1.212 1.84-1.921-0.68 0.293-1.383 0.492-2.11 0.593z"></path>
</symbol>
<symbol id="icon-edit" viewBox="0 0 24 24">
<path d="M21.561 5.318l-2.879-2.879c-0.293-0.293-0.677-0.439-1.061-0.439-0.385 0-0.768 0.146-1.061 0.439l-3.56 3.561h-9c-0.552 0-1 0.447-1 1v13c0 0.553 0.448 1 1 1h13c0.552 0 1-0.447 1-1v-9l3.561-3.561c0.293-0.293 0.439-0.677 0.439-1.061s-0.146-0.767-0.439-1.060zM11.5 14.672l-2.172-2.172 6.293-6.293 2.172 2.172-6.293 6.293zM8.939 13.333l1.756 1.728-1.695-0.061-0.061-1.667zM16 19h-11v-11h6l-3.18 3.18c-0.293 0.293-0.478 0.812-0.629 1.289-0.16 0.5-0.191 1.056-0.191 1.47v3.061h3.061c0.414 0 1.108-0.1 1.571-0.29 0.464-0.19 0.896-0.347 1.188-0.64l3.18-3.070v6zM18.5 7.672l-2.172-2.172 1.293-1.293 2.171 2.172-1.292 1.293z"></path>
</symbol>
<symbol id="icon-social-facebook" viewBox="0 0 24 24">
<path d="M13 10h3v3h-3v7h-3v-7h-3v-3h3v-1.255c0-1.189 0.374-2.691 1.118-3.512 0.744-0.823 1.673-1.233 2.786-1.233h2.096v3h-2.1c-0.498 0-0.9 0.402-0.9 0.899v2.101z"></path>
</symbol>
<symbol id="icon-blackboard" viewBox="0 0 20 20">
<path d="M2.539 20h3.461l1.406-3.698-2.966-1.004-1.901 4.702zM12.594 16.302l1.406 3.698h3.461l-1.901-4.702-2.966 1.004zM18 2h-6.5l-0.5-2h-2l-0.5 2h-6.5c-0.553 0-1 0.447-1 1v11c0 0.552 0.447 1 1 1h16c0.553 0 1-0.448 1-1v-11c0-0.552-0.447-1-1-1z"></path>
</symbol>
<symbol id="icon-chat" viewBox="0 0 20 20">
<path d="M5.8 12.2v-6.2h-3.8c-1.1 0-2 0.9-2 2v6c0 1.1 0.9 2 2 2h1v3l3-3h5c1.1 0 2-0.9 2-2v-1.82c-0.064 0.014-0.132 0.021-0.2 0.021l-7-0.001zM18 1h-9c-1.1 0-2 0.9-2 2v8h7l3 3v-3h1c1.1 0 2-0.899 2-2v-6c0-1.1-0.9-2-2-2z"></path>
</symbol>
<symbol id="icon-menu" viewBox="0 0 20 20">
<path d="M16.4 9h-12.8c-0.552 0-0.6 0.447-0.6 1s0.048 1 0.6 1h12.8c0.552 0 0.6-0.447 0.6-1s-0.048-1-0.6-1zM16.4 13h-12.8c-0.552 0-0.6 0.447-0.6 1s0.048 1 0.6 1h12.8c0.552 0 0.6-0.447 0.6-1s-0.048-1-0.6-1zM3.6 7h12.8c0.552 0 0.6-0.447 0.6-1s-0.048-1-0.6-1h-12.8c-0.552 0-0.6 0.447-0.6 1s0.048 1 0.6 1z"></path>
</symbol>
<symbol id="icon-modern-mic" viewBox="0 0 20 20">
<path d="M1.228 10.891c-0.221 0.148-0.292 0.46-0.159 0.69l1.296 2.244c0.133 0.23 0.438 0.325 0.677 0.208l3.958-1.917v6.884h2v-7.854l4.071-1.973-2.62-4.54-9.223 6.258zM18.457 3.037c-1.121-1.94-3.604-2.605-5.546-1.484-0.91 0.525-1.508 1.359-1.801 2.289l2.976 5.156c0.951 0.212 1.973 0.11 2.885-0.415 1.942-1.121 2.607-3.603 1.486-5.546z"></path>
</symbol>
<symbol id="icon-amazon" viewBox="0 0 32 32">
<path d="M28.925 27.663c-3.506 2.587-8.581 3.962-12.956 3.962-6.131 0-11.65-2.262-15.825-6.038-0.325-0.294-0.038-0.7 0.356-0.469 4.506 2.625 10.081 4.2 15.838 4.2 3.881 0 8.15-0.806 12.081-2.475 0.587-0.25 1.087 0.394 0.506 0.819z"></path>
<path d="M30.381 26c-0.45-0.575-2.962-0.275-4.094-0.137-0.344 0.038-0.394-0.256-0.087-0.475 2.006-1.406 5.294-1 5.675-0.531 0.387 0.475-0.1 3.769-1.981 5.344-0.288 0.244-0.563 0.113-0.438-0.206 0.431-1.056 1.375-3.419 0.925-3.994z"></path>
<path d="M22.106 23.675l0.006 0.006c0.775-0.681 2.169-1.9 2.956-2.556 0.313-0.25 0.256-0.669 0.012-1.019-0.706-0.975-1.456-1.769-1.456-3.569v-6c0-2.544 0.175-4.875-1.694-6.625-1.475-1.413-3.925-1.913-5.8-1.913-3.662 0-7.75 1.369-8.606 5.894-0.094 0.481 0.263 0.738 0.575 0.806l3.731 0.406c0.35-0.019 0.6-0.363 0.669-0.713 0.319-1.556 1.625-2.313 3.094-2.313 0.794 0 1.694 0.287 2.163 1 0.538 0.794 0.469 1.875 0.469 2.794v0.5c-2.231 0.25-5.15 0.412-7.238 1.331-2.412 1.044-4.106 3.169-4.106 6.294 0 4 2.519 6 5.763 6 2.738 0 4.231-0.644 6.344-2.806 0.7 1.012 0.925 1.506 2.206 2.569 0.294 0.156 0.656 0.144 0.913-0.087zM18.225 14.287c0 1.5 0.038 2.75-0.719 4.081-0.613 1.087-1.581 1.75-2.662 1.75-1.475 0-2.338-1.125-2.338-2.788 0-3.281 2.944-3.875 5.725-3.875v0.831z"></path>
</symbol>
<symbol id="icon-google-plus" viewBox="0 0 32 32">
<path d="M10.181 14.294v3.494h5.775c-0.231 1.5-1.744 4.394-5.775 4.394-3.475 0-6.313-2.881-6.313-6.431s2.838-6.431 6.313-6.431c1.981 0 3.3 0.844 4.056 1.569l2.762-2.662c-1.775-1.656-4.075-2.662-6.819-2.662-5.631 0.006-10.181 4.556-10.181 10.188s4.55 10.181 10.181 10.181c5.875 0 9.775-4.131 9.775-9.95 0-0.669-0.075-1.181-0.163-1.688h-9.613z"></path>
<path d="M32 14h-3v-3h-3v3h-3v3h3v3h3v-3h3z"></path>
</symbol>
<symbol id="icon-facebook1" viewBox="0 0 32 32">
<path d="M19 6h5v-6h-5c-3.86 0-7 3.14-7 7v3h-4v6h4v16h6v-16h5l1-6h-6v-3c0-0.542 0.458-1 1-1z"></path>
</symbol>
<symbol id="icon-twitter" viewBox="0 0 32 32">
<path d="M32 7.075c-1.175 0.525-2.444 0.875-3.769 1.031 1.356-0.813 2.394-2.1 2.887-3.631-1.269 0.75-2.675 1.3-4.169 1.594-1.2-1.275-2.906-2.069-4.794-2.069-3.625 0-6.563 2.938-6.563 6.563 0 0.512 0.056 1.012 0.169 1.494-5.456-0.275-10.294-2.888-13.531-6.862-0.563 0.969-0.887 2.1-0.887 3.3 0 2.275 1.156 4.287 2.919 5.463-1.075-0.031-2.087-0.331-2.975-0.819 0 0.025 0 0.056 0 0.081 0 3.181 2.263 5.838 5.269 6.437-0.55 0.15-1.131 0.231-1.731 0.231-0.425 0-0.831-0.044-1.237-0.119 0.838 2.606 3.263 4.506 6.131 4.563-2.25 1.762-5.075 2.813-8.156 2.813-0.531 0-1.050-0.031-1.569-0.094 2.913 1.869 6.362 2.95 10.069 2.95 12.075 0 18.681-10.006 18.681-18.681 0-0.287-0.006-0.569-0.019-0.85 1.281-0.919 2.394-2.075 3.275-3.394z"></path>
</symbol>
<symbol id="icon-npm" viewBox="0 0 32 32">
<path d="M0 0v32h32v-32h-32zM26 26h-4v-16h-6v16h-10v-20h20v20z"></path>
</symbol>
<symbol id="icon-linkedin2" viewBox="0 0 32 32">
<path d="M12 12h5.535v2.837h0.079c0.77-1.381 2.655-2.837 5.464-2.837 5.842 0 6.922 3.637 6.922 8.367v9.633h-5.769v-8.54c0-2.037-0.042-4.657-3.001-4.657-3.005 0-3.463 2.218-3.463 4.509v8.688h-5.767v-18z"></path>
<path d="M2 12h6v18h-6v-18z"></path>
<path d="M8 7c0 1.657-1.343 3-3 3s-3-1.343-3-3c0-1.657 1.343-3 3-3s3 1.343 3 3z"></path>
</symbol>
</defs>
</svg>
