<svg aria-hidden="true" style="position: absolute; width: 0; height: 0; overflow: hidden;" version="1.1" xmlns="http://www.w3.org/2000/svg" xmlns:xlink="http://www.w3.org/1999/xlink">
<defs>
<symbol id="icon-microphone" viewBox="0 0 32 32">
<path d="M18.251 12.906c0.617-2.099 0.356-4.4-0.782-6.327 0.025 0.035-10.879 11.027-10.957 10.958 1.895 1.119 4.196 1.434 6.267 0.856-0.015-0.053 5.428-5.495 5.472-5.487zM16.306 4.826c-1.469-1.448-3.571-2.43-5.794-2.43-4.493 0-8.136 3.652-8.136 8.156 0 2.198 1 4.326 2.41 5.793 0.003 0 11.451-11.425 11.52-11.519zM27.812 26.466c0 0 0.266-2.298-0.397-2.961-0.044-0.044-7.646-9.325-7.646-9.325l-5.657 5.657 9.281 7.689c0.619 0.707 3.005 0.354 3.005 0.354l1.9 1.724 1.326-1.326-1.812-1.812z"></path>
</symbol>
<symbol id="icon-airplay" viewBox="0 0 24 24">
<path d="M21 3q0.797 0 1.406 0.609t0.609 1.406v12q0 0.797-0.609 1.383t-1.406 0.586h-3.984v-1.969h3.984v-12h-18v12h3.984v1.969h-3.984q-0.797 0-1.406-0.586t-0.609-1.383v-12q0-0.797 0.609-1.406t1.406-0.609h18zM6 21.984l6-6 6 6h-12z"></path>
</symbol>
<symbol id="icon-forum" viewBox="0 0 24 24">
<path d="M17.016 12q0 0.422-0.305 0.703t-0.727 0.281h-9.984l-3.984 4.031v-14.016q0-0.422 0.281-0.703t0.703-0.281h12.984q0.422 0 0.727 0.281t0.305 0.703v9zM21 6q0.422 0 0.703 0.281t0.281 0.703v15l-3.984-3.984h-11.016q-0.422 0-0.703-0.281t-0.281-0.703v-2.016h12.984v-9h2.016z"></path>
</symbol>
<symbol id="icon-clear" viewBox="0 0 24 24">
<path d="M18.984 6.422l-5.578 5.578 5.578 5.578-1.406 1.406-5.578-5.578-5.578 5.578-1.406-1.406 5.578-5.578-5.578-5.578 1.406-1.406 5.578 5.578 5.578-5.578z"></path>
</symbol>
<symbol id="icon-devices_other" viewBox="0 0 24 24">
<path d="M21 18v-8.016h-3.984v8.016h3.984zM21.984 8.016q0.375 0 0.703 0.305t0.328 0.68v9.984q0 0.375-0.328 0.703t-0.703 0.328h-6q-0.375 0-0.68-0.328t-0.305-0.703v-9.984q0-0.375 0.305-0.68t0.68-0.305h6zM11.016 17.484q0.609 0 1.055-0.445t0.445-1.055-0.445-1.055-1.055-0.445-1.055 0.445-0.445 1.055 0.445 1.055 1.055 0.445zM12.984 12v1.781q1.031 0.938 1.031 2.203 0 1.313-1.031 2.25v1.781h-3.984v-1.781q-0.984-0.891-0.984-2.25 0-1.313 0.984-2.203v-1.781h3.984zM3 6v12h3.984v2.016h-3.984q-0.797 0-1.406-0.609t-0.609-1.406v-12q0-0.797 0.609-1.406t1.406-0.609h18v2.016h-18z"></path>
</symbol>
<symbol id="icon-category" viewBox="0 0 24 24">
<path d="M3 13.5h8.016v8.016h-8.016v-8.016zM12.984 17.484q0-1.875 1.313-3.188t3.188-1.313 3.188 1.313 1.313 3.188-1.313 3.188-3.188 1.313-3.188-1.313-1.313-3.188zM12 2.016l5.484 9h-10.969z"></path>
</symbol>
<symbol id="icon-personal_video" viewBox="0 0 24 24">
<path d="M21 17.016v-12h-18v12h18zM21 3q0.844 0 1.43 0.586t0.586 1.43l-0.047 12q0 0.797-0.586 1.383t-1.383 0.586h-5.016v2.016h-7.969v-2.016h-5.016q-0.844 0-1.43-0.563t-0.586-1.406v-12q0-0.844 0.586-1.43t1.43-0.586h18z"></path>
</symbol>
<symbol id="icon-home" viewBox="0 0 24 24">
<path d="M9.984 20.016h-4.969v-8.016h-3l9.984-9 9.984 9h-3v8.016h-4.969v-6h-4.031v6z"></path>
</symbol>
<symbol id="icon-mic_external_on" viewBox="0 0 24 24">
<path d="M9.234 6.984h-4.453q-0.375-0.375-0.586-0.891t-0.211-1.078q0-0.844 0.422-1.523t1.102-1.078 1.477-0.398q0.844 0 1.523 0.398t1.078 1.078 0.398 1.523q0 0.563-0.211 1.078t-0.539 0.891zM15.984 2.016q1.125 0 2.039 0.539t1.453 1.43 0.539 2.016v15.984h-2.016v-15.984q0-0.844-0.586-1.43t-1.43-0.586q-0.797 0-1.383 0.586t-0.586 1.43v12q0 1.125-0.539 2.016t-1.453 1.43-2.039 0.539q-1.078 0-1.992-0.539t-1.453-1.43-0.539-2.016h-0.984l-1.031-9.984h6l-0.984 9.984h-0.984q0 0.844 0.586 1.43t1.383 0.586q0.844 0 1.43-0.586t0.586-1.43v-12q0-1.125 0.539-2.016t1.453-1.43 1.992-0.539z"></path>
</symbol>
<symbol id="icon-table_rows" viewBox="0 0 24 24">
<path d="M21.984 6.984h-19.969v-4.969h19.969v4.969zM21.984 9.516h-19.969v4.969h19.969v-4.969zM21.984 17.016h-19.969v4.969h19.969v-4.969z"></path>
</symbol>
<symbol id="icon-coronavirus" viewBox="0 0 24 24">
<path d="M21.234 10.5q-0.281 0-0.516 0.211t-0.234 0.539h-1.547q-0.188-2.063-1.5-3.656l1.078-1.078h0.047q0.188 0.234 0.492 0.234t0.539-0.234 0.234-0.539-0.234-0.539l-1.031-1.031q-0.234-0.234-0.539-0.234t-0.539 0.234-0.234 0.539 0.234 0.492l-1.125 1.125q-0.75-0.656-1.664-1.031t-1.945-0.516v-1.5q0.328 0 0.539-0.234t0.211-0.516q0-0.328-0.211-0.539t-0.539-0.211h-1.5q-0.328 0-0.539 0.211t-0.211 0.539q0 0.281 0.211 0.516t0.539 0.234v1.547q-1.031 0.094-1.969 0.492t-1.688 1.008l-1.078-1.078v-0.047q0.234-0.188 0.234-0.492t-0.234-0.539-0.539-0.234-0.539 0.234l-1.031 1.031q-0.234 0.234-0.234 0.539t0.234 0.539 0.539 0.234 0.492-0.234l1.125 1.125q-0.656 0.75-1.031 1.664t-0.469 1.945h-1.547q0-0.328-0.234-0.539t-0.516-0.211q-0.328 0-0.539 0.211t-0.211 0.539v1.5q0 0.328 0.211 0.539t0.539 0.211q0.281 0 0.516-0.211t0.234-0.539h1.547q0.094 1.031 0.492 1.945t1.008 1.664l-1.125 1.125q-0.188-0.234-0.492-0.234t-0.539 0.234-0.234 0.539 0.234 0.539l1.031 1.031q0.234 0.234 0.539 0.234t0.539-0.234 0.234-0.539-0.234-0.492v-0.047l1.078-1.078q0.75 0.609 1.688 1.008t1.969 0.492v1.547q-0.328 0-0.539 0.234t-0.211 0.516q0 0.328 0.211 0.539t0.539 0.211h1.5q0.281 0 0.516-0.211t0.234-0.539q0-0.281-0.234-0.516t-0.516-0.234v0-1.547q0.984-0.094 1.922-0.492t1.688-1.008l1.078 1.125q-0.188 0.188-0.188 0.492t0.234 0.539q0.188 0.234 0.516 0.234t0.516-0.234l1.078-1.078q0.234-0.188 0.234-0.516t-0.234-0.516q-0.234-0.234-0.539-0.234t-0.539 0.234v0l-1.078-1.078q0.609-0.797 1.008-1.711t0.492-1.945h1.547q0 0.281 0.234 0.516t0.516 0.234q0.328 0 0.539-0.234t0.211-0.516v-1.5q0-0.328-0.211-0.539t-0.539-0.211zM13.734 8.016q0.422 0 0.727 0.281t0.305 0.703-0.305 0.703-0.727 0.281q-0.375 0-0.68-0.281t-0.305-0.703 0.305-0.703 0.68-0.281zM12 12.984q-0.422 0-0.703-0.281t-0.281-0.703 0.281-0.703 0.703-0.281 0.703 0.281 0.281 0.703-0.281 0.703-0.703 0.281zM10.266 8.016q0.375 0 0.68 0.281t0.305 0.703-0.305 0.703-0.68 0.281q-0.422 0-0.727-0.281t-0.305-0.703 0.305-0.703 0.727-0.281zM8.484 12.984q-0.375 0-0.68-0.281t-0.305-0.703 0.305-0.703 0.68-0.281q0.422 0 0.727 0.281t0.305 0.703-0.305 0.703-0.727 0.281zM10.266 15.984q-0.422 0-0.727-0.281t-0.305-0.703 0.305-0.703 0.727-0.281q0.375 0 0.68 0.281t0.305 0.703-0.305 0.703-0.68 0.281zM13.734 15.984q-0.375 0-0.68-0.281t-0.305-0.703 0.305-0.703 0.68-0.281q0.422 0 0.727 0.281t0.305 0.703-0.305 0.703-0.727 0.281zM14.484 12q0-0.422 0.305-0.703t0.727-0.281q0.375 0 0.68 0.281t0.305 0.703-0.305 0.703-0.68 0.281q-0.422 0-0.727-0.281t-0.305-0.703z"></path>
</symbol>
<symbol id="icon-social-twitter" viewBox="0 0 24 24">
<path d="M18.89 7.012c0.808-0.496 1.343-1.173 1.605-2.034-0.786 0.417-1.569 0.703-2.351 0.861-0.703-0.756-1.593-1.14-2.66-1.14-1.043 0-1.924 0.366-2.643 1.078-0.715 0.717-1.076 1.588-1.076 2.605 0 0.309 0.039 0.585 0.117 0.819-3.076-0.105-5.622-1.381-7.628-3.837-0.34 0.601-0.51 1.213-0.51 1.846 0 1.301 0.549 2.332 1.645 3.089-0.625-0.053-1.176-0.211-1.645-0.47 0 0.929 0.273 1.705 0.82 2.388 0.549 0.676 1.254 1.107 2.115 1.291-0.312 0.080-0.641 0.118-0.979 0.118-0.312 0-0.533-0.026-0.664-0.083 0.23 0.757 0.664 1.371 1.291 1.841 0.625 0.472 1.344 0.721 2.152 0.743-1.332 1.045-2.855 1.562-4.578 1.562-0.422 0-0.721-0.006-0.902-0.038 1.697 1.102 3.586 1.649 5.676 1.649 2.139 0 4.029-0.542 5.674-1.626 1.645-1.078 2.859-2.408 3.639-3.974 0.784-1.564 1.172-3.192 1.172-4.892v-0.468c0.758-0.57 1.371-1.212 1.84-1.921-0.68 0.293-1.383 0.492-2.11 0.593z"></path>
</symbol>
<symbol id="icon-edit" viewBox="0 0 24 24">
<path d="M21.561 5.318l-2.879-2.879c-0.293-0.293-0.677-0.439-1.061-0.439-0.385 0-0.768 0.146-1.061 0.439l-3.56 3.561h-9c-0.552 0-1 0.447-1 1v13c0 0.553 0.448 1 1 1h13c0.552 0 1-0.447 1-1v-9l3.561-3.561c0.293-0.293 0.439-0.677 0.439-1.061s-0.146-0.767-0.439-1.060zM11.5 14.672l-2.172-2.172 6.293-6.293 2.172 2.172-6.293 6.293zM8.939 13.333l1.756 1.728-1.695-0.061-0.061-1.667zM16 19h-11v-11h6l-3.18 3.18c-0.293 0.293-0.478 0.812-0.629 1.289-0.16 0.5-0.191 1.056-0.191 1.47v3.061h3.061c0.414 0 1.108-0.1 1.571-0.29 0.464-0.19 0.896-0.347 1.188-0.64l3.18-3.070v6zM18.5 7.672l-2.172-2.172 1.293-1.293 2.171 2.172-1.292 1.293z"></path>
</symbol>
<symbol id="icon-social-facebook" viewBox="0 0 24 24">
<path d="M13 10h3v3h-3v7h-3v-7h-3v-3h3v-1.255c0-1.189 0.374-2.691 1.118-3.512 0.744-0.823 1.673-1.233 2.786-1.233h2.096v3h-2.1c-0.498 0-0.9 0.402-0.9 0.899v2.101z"></path>
</symbol>
<symbol id="icon-blackboard" viewBox="0 0 20 20">
<path d="M2.539 20h3.461l1.406-3.698-2.966-1.004-1.901 4.702zM12.594 16.302l1.406 3.698h3.461l-1.901-4.702-2.966 1.004zM18 2h-6.5l-0.5-2h-2l-0.5 2h-6.5c-0.553 0-1 0.447-1 1v11c0 0.552 0.447 1 1 1h16c0.553 0 1-0.448 1-1v-11c0-0.552-0.447-1-1-1z"></path>
</symbol>
<symbol id="icon-chat" viewBox="0 0 20 20">
<path d="M5.8 12.2v-6.2h-3.8c-1.1 0-2 0.9-2 2v6c0 1.1 0.9 2 2 2h1v3l3-3h5c1.1 0 2-0.9 2-2v-1.82c-0.064 0.014-0.132 0.021-0.2 0.021l-7-0.001zM18 1h-9c-1.1 0-2 0.9-2 2v8h7l3 3v-3h1c1.1 0 2-0.899 2-2v-6c0-1.1-0.9-2-2-2z"></path>
</symbol>
<symbol id="icon-modern-mic" viewBox="0 0 20 20">
<path d="M1.228 10.891c-0.221 0.148-0.292 0.46-0.159 0.69l1.296 2.244c0.133 0.23 0.438 0.325 0.677 0.208l3.958-1.917v6.884h2v-7.854l4.071-1.973-2.62-4.54-9.223 6.258zM18.457 3.037c-1.121-1.94-3.604-2.605-5.546-1.484-0.91 0.525-1.508 1.359-1.801 2.289l2.976 5.156c0.951 0.212 1.973 0.11 2.885-0.415 1.942-1.121 2.607-3.603 1.486-5.546z"></path>
</symbol>
</defs>
</svg>
